PathFileType	4	(X/Y/Z)	C:/Users/beibeiliu/ov580/test_trc/User1\sequence.7_training_dense_left.trc
DataRate	CameraRate	NumFrames	NumMarkers	Units	OrigDataRate	OrigDataStartFrame	OrigNumFrames
120	120	10	19	mm	120	185	295
Frame#	Time	ThumbCMC			ThumbMCP			ThumbIP			ThumbTip			IndexMCP			IndexPIP			IndexTip			MiddleMCP			MiddlePIP			MiddleTip			RingMCP			RingPIP			RingTip			PinkyMCP			PinkyPIP			PinkyTip			BackHand1			BackHand2			BackHand3	
		X0	Y0	Z0	X1	Y1	Z1	X2	Y2	Z2	X3	Y3	Z3	X4	Y4	Z4	X5	Y5	Z5	X6	Y6	Z6	X7	Y7	Z7	X8	Y8	Z8	X9	Y9	Z9	X10	Y10	Z10	X11	Y11	Z11	X12	Y12	Z12	X13	Y13	Z13	X14	Y14	Z14	X15	Y15	Z15	X16	Y16	Z16	X17	Y17	Z17	X18	Y18	Z18	
184	1.53333	-192.384	138.701	-2.2045	-156.671	139.472	-16.224	-138.203	132.603	-36.3853	-121.034	120.15	-49.5664	-195.495	113.191	-79.3358	-179.841	105.959	-103.981	-150.699	98.0696	-114.431	-171.134	91.3654	-80.382	-138.977	97.5267	-77.7833	-129.385	104.869	-39.855	-164.563	71.0622	-66.0597	-135.636	79.3179	-54.3761	-136.751	90.5083	-20.6907	-169.157	53.9491	-48.5444	-144.05	68.2105	-42.3262	-145.566	85.2283	-16.2658	-219.029	77.6522	-24.5403	-229.669	81.5094	9.45709	-225.343	112.827	-14.868	
185	1.54167	-190.78	139.085	-0.923877	-156.53	137.785	-18.7769	-137.563	132.012	-40.6474	-122.936	115.198	-54.2035	-196.258	114.216	-82.7917	-183.701	105.139	-104.905	-159.374	95.4608	-120.091	-175.169	95.6681	-82.0214	-141.244	93.5368	-77.2347	-130.779	100.937	-41.2438	-171.512	72.8433	-65.1757	-138.671	78.7653	-58.3912	-138.231	89.6452	-24.5689	-176.63	56.4015	-48.603	-145.534	65.3038	-41.4076	-148.564	84.9699	-19.7512	-221.064	80.4328	-25.0144	-230.47	85.3468	5.90824	-225.033	116.215	-15.1636	
186	1.55	-188.955	141.985	-1.17397	-154.684	136.297	-19.8253	-134.887	131.405	-39.7931	-121.25	114.532	-54.2838	-197.672	115.965	-79.1672	-185.401	104.931	-109.285	-168.004	95.1069	-123.644	-180.815	91.6683	-79.5843	-142.213	92.7235	-78.6678	-131.008	97.9245	-43.2845	-171.157	73.6424	-68.1685	-140.219	74.3503	-55.9472	-141.402	85.5479	-22.4887	-176.347	51.5379	-49.6285	-151.004	63.6278	-45.9299	-152.87	86.6189	-20.8284	-222.916	77.7094	-22.3253	-234.021	86.0904	6.74825	-225.434	119.577	-11.5836	
187	1.55833	-187.765	137.553	-0.639698	-155.049	132.436	-18.802	-134.258	126.72	-41.0016	-120.538	109.957	-57.91	-198.576	116.065	-82.4048	-191.515	109.124	-105.725	-171.761	94.173	-128.779	-179.816	95.0924	-83.2699	-145.674	87.5697	-80.6497	-132.853	93.7963	-46.3961	-174.962	73.976	-69.602	-144.086	74.819	-58.5836	-142.166	82.9178	-27.755	-180.959	51.3099	-50.561	-152.576	59.6739	-44.8778	-153.871	81.7071	-20.2234	-222.402	85.5919	-26.5301	-232.845	86.8155	7.89906	-225.084	117.578	-14.361	
188	1.56667	-184.874	139.282	-2.04867	-150.843	132.487	-21.9633	-133.56	123.403	-43.8979	-122.359	102.95	-59.4924	-199.598	117.216	-81.8395	-193.012	108.717	-106.352	-177.34	91.3112	-128.355	-185.132	90.1537	-80.341	-148.113	86.5624	-81.9413	-133.468	94.1277	-42.8742	-178.429	68.6798	-68.1496	-145.837	68.7944	-56.7639	-146.216	82.9175	-25.5848	-182.367	52.5369	-51.7408	-156.087	56.1817	-45.2553	-154.703	76.9919	-20.0569	-226.561	81.9517	-26.317	-234.249	90.9216	11.8468	-224.38	119.909	-15.4443	
189	1.575	-183.267	138.155	-3.6882	-153.236	127.241	-23.1536	-132.64	120.696	-42.8744	-119.821	100.182	-61.2638	-199.975	118.781	-80.4499	-193.86	106.83	-107.909	-180.808	92.7118	-128.445	-184.904	90.4198	-81.7018	-149.475	81.6835	-81.9498	-135.328	88.1383	-43.8498	-178.358	70.2779	-69.4254	-145.59	66.5482	-54.4341	-146.674	82.3466	-24.1076	-184.296	49.7434	-51.064	-158.968	57.7773	-45.6645	-158.236	79.8414	-20.2951	-227.176	86.9844	-21.9292	-235.267	91.9106	12.2768	-221.276	122.468	-12.957	
190	1.58333	-180.845	139.773	-4.35191	-148.674	127.812	-25.3337	-131.833	117.726	-45.981	-119.981	98.8546	-61.173	-199.121	115.701	-79.7836	-193.799	101.435	-104.727	-180.041	88.2864	-129.754	-184.069	88.3828	-82.4399	-146.9	82.838	-81.3276	-135.482	85.8365	-45.0848	-181.845	64.4288	-65.4127	-147.777	67.1045	-57.4659	-146.977	77.7787	-24.0265	-189.139	50.8978	-47.9637	-158.688	57.0486	-44.8093	-158.569	81.1498	-19.862	-224.829	81.7648	-25.2413	-233.112	89.6495	8.5548	-221.226	123.795	-10.6485	
191	1.59167	-182.497	136.746	-6.24056	-150.261	129.126	-22.1246	-134.168	118.349	-42.6242	-123.815	97.2174	-59.9922	-199.023	113.718	-81.8697	-193.768	101.66	-108.425	-180.232	85.6604	-127.471	-184.203	87.3948	-82.1471	-149.98	78.2735	-81.9055	-135.195	87.1867	-43.6593	-178.432	68.4637	-68.5541	-147.071	65.3025	-54.8626	-147.27	77.8184	-24.3694	-186.617	52.4484	-48.9172	-158.075	55.4146	-45.2754	-160.732	80.6383	-21.2073	-226.067	82.4096	-24.1472	-233.013	90.3906	8.34206	-221.875	119.09	-10.4812	
192	1.6	-180.602	139.875	-4.40178	-148.974	129.602	-25.0937	-135.029	116.544	-45.8715	-119.471	96.0854	-61.9232	-200.037	112.457	-84.4438	-193.384	97.9551	-105.357	-174.734	86.6111	-129.368	-185.493	86.2831	-80.3627	-149.961	77.4122	-80.3864	-134.105	85.8341	-45.9217	-178.046	64.1374	-65.4986	-145.329	65.3485	-54.4828	-145.865	83.3375	-24.6548	-185.82	46.9711	-45.6822	-156.009	53.2906	-43.3527	-155.614	78.9712	-19.1834	-224.405	82.4225	-20.4084	-231.03	93.6831	13.2721	-221.01	120.255	-11.403	
193	1.60833	-182.124	140.32	-3.1817	-150.709	126.762	-22.9563	-133.895	115.267	-46.5192	-118.116	98.1974	-60.1935	-199.966	110.355	-85.2089	-190.644	98.2598	-108.235	-170.215	81.0709	-125.657	-181.134	84.3231	-82.8167	-149.301	77.0154	-81.2402	-134.377	85.7665	-45.4941	-176.023	61.9621	-65.1805	-144.6	66.1203	-54.4471	-143.018	78.6873	-26.3211	-186.034	50.1657	-45.9639	-154.455	53.5142	-42.671	-156.043	80.789	-17.5519	-223.028	78.7961	-23.2007	-233.517	87.6683	12.5578	-221.016	120.26	-12.9634	
